<svg version="1.2" xmlns="http://www.w3.org/2000/svg" viewBox="0 0 182 32" width="182" height="32">
	<title>Nouveau projet</title>
	<style>
		.s0 { fill: #ffffff } 
	</style>
	<path id="Drive" class="s0" aria-label="Drive"  d="m26.7 0.8l13.3-0.1q6.5 0 9.1 2.3 2.8 2.3 2.8 7.4 0 2.6-0.6 6-1.5 8.4-5.2 12-3.6 3.6-11.6 3.6h-13.3zm12 8h-3.9l-2.7 15.3 3.9-0.1q2 0 3-0.4 0.9-0.5 1.2-2.2l1.8-10q0-0.3 0-0.8 0-1.1-0.8-1.5-0.8-0.3-2.5-0.3zm-18.6 20.9l-0.4 2.2-21.2-2.2zm1.7-9.7l-0.4 2.2-21.2-2.2zm0.8-4.8l-0.4 2.2-21.2-2.2zm0.9-4.8l-0.4 2.2-21.2-2.2zm0.8-4.8l-0.4 2.2-21.2-2.2zm-3.3 19.2l-0.4 2.3-21.2-2.3zm4.2-24l-0.4 2.3-21.2-2.3zm42.8 4.8h12.7q7.3 0 7.3 6.6 0 3-1.3 6.2-1.2 3.3-4 4.8l2.8 8.9h-9.3l-1.9-7.7h-1.2l-1.4 7.7h-8.3zm10.5 10.4l0.3-1.8q0 0 0-0.5 0-0.8-2.6-0.8h-1.1l-0.8 4.6h1.6q2.3 0 2.6-1.5zm-16.4 13.6l-0.4 2.3-21.2-2.3zm1.7-9.6l-0.4 2.2-21.2-2.2zm0.8-4.8l-0.4 2.2-21.2-2.2zm0.9-4.8l-0.4 2.2-21.2-2.2zm0.8-4.8l-0.4 2.2-21.2-2.3zm-3.3 19.3l-0.4 2.2-21.2-2.2zm45.2 7.2h-8.8l4.6-26.5h8.8zm-10-2.4l-0.4 2.3-21.2-2.3zm1.7-9.6l-0.4 2.2-21.2-2.2zm0.9-4.8l-0.4 2.2-21.2-2.2zm0.8-4.8l-0.4 2.2-21.2-2.2zm0.8-4.8l-0.3 2.2-21.2-2.2zm-3.4 19.2l-0.4 2.2-21.2-2.2zm28.4-19.2h9.2v15.1h0.2l5.8-15.1h9.1l-10.7 26.4h-12.2zm-0.2 26.4l-21-2.3h20.9zm-0.3-4.8l-21.1-2.3h21zm-1-19.2l-21.2-2.3h21zm0.3 4.8l-21.2-2.2h21.1zm0.2 4.8l-21.1-2.2h21zm0.2 4.8l-21-2.3h20.9zm52.1-5.7l-0.9 4.8h-7.4l-0.6 3.4h9.2l-1.3 7.3h-17.6l4.6-26.4 17.6-0.1-2.4 7.6h-8.1l-0.6 3.4zm-19.9 13.1l-0.4 2.3-21.2-2.3zm1.7-9.6l-0.4 2.2-21.2-2.2zm0.9-4.8l-0.4 2.2-21.2-2.2zm0.8-4.8l-0.4 2.2-21.2-2.3zm0.8-4.8l-0.3 2.3-21.2-2.3zm-3.4 19.3l-0.4 2.2-21.2-2.2z"/>
</svg>